<svg width="348" height="67" viewBox="0 0 348 67" fill="none" xmlns="http://www.w3.org/2000/svg">
<path d="M22.0633 67C17.9299 67 14.0633 66.7 10.4633 66.1C6.92995 65.5 3.86328 64.6333 1.26328 63.5V51.6C4.19661 52.8 7.36328 53.7667 10.7633 54.5C14.1633 55.2333 17.4966 55.6 20.7633 55.6C25.4299 55.6 28.8633 55.1667 31.0633 54.3C33.2633 53.4333 34.3633 51.4667 34.3633 48.4C34.3633 46.4667 33.8966 44.9333 32.9633 43.8C32.03 42.6667 30.3966 41.6667 28.0633 40.8C25.7966 39.8667 22.5633 38.8333 18.3633 37.7C11.6299 35.8333 6.89661 33.5 4.16328 30.7C1.42995 27.9 0.063282 24.0333 0.063282 19.1C0.063282 13.1667 2.22995 8.60001 6.56328 5.40001C10.8966 2.20001 17.1966 0.600006 25.4633 0.600006C29.3299 0.600006 32.9299 0.866673 36.2633 1.40001C39.5966 1.93334 42.2966 2.56667 44.3633 3.30001V15.2C38.8966 13.1333 33.1966 12.1 27.2633 12.1C23.0633 12.1 19.7633 12.5667 17.3633 13.5C14.9633 14.3667 13.7633 16.2333 13.7633 19.1C13.7633 20.7667 14.1966 22.1 15.0633 23.1C15.9299 24.1 17.3966 25 19.4633 25.8C21.5966 26.6 24.5633 27.5 28.3633 28.5C33.6299 29.9 37.6966 31.5667 40.5633 33.5C43.4299 35.4333 45.3966 37.6333 46.4633 40.1C47.5966 42.5667 48.1633 45.3333 48.1633 48.4C48.1633 54 46.0299 58.5 41.7633 61.9C37.4966 65.3 30.9299 67 22.0633 67ZM50.0633 66L74.6633 1.6H89.4633L113.963 66H99.9633L93.8633 50.5H70.1633L64.1633 66H50.0633ZM72.1633 40.1H91.8633L81.9633 14.2L72.1633 40.1ZM130.656 66V12H110.856V1.6H163.856V12H144.156V66H130.656ZM160.805 66L185.405 1.6H200.205L224.705 66H210.705L204.605 50.5H180.905L174.905 66H160.805ZM182.905 40.1H202.605L192.705 14.2L182.905 40.1Z" fill="white"/>
<path d="M234.095 66V1.59998H280.295V12.1H247.595V28.6H276.595V39H247.595V55.6H280.295V66H234.095ZM285.122 66L308.422 33.7L285.722 1.59998H301.622L316.522 23.1L331.422 1.59998H347.322L324.622 33.7L347.922 66H331.822L316.522 44.5L301.222 66H285.122Z" fill="#F7A600"/>
</svg>
