<svg width="100" height="100" viewBox="0 0 100 100" fill="none" xmlns="http://www.w3.org/2000/svg">
<path d="M8.57129 78.185L49.9999 71.4286L91.4284 78.185L49.9999 85.7143L8.57129 78.185Z" fill="#F4A203"/>
<path fill-rule="evenodd" clip-rule="evenodd" d="M48.5716 16.4286V50H51.4287V16.4286H48.5716ZM65.7144 25V50H68.5716V25H65.7144ZM32.143 50V25H35.0001V50H32.143ZM50.0001 64.2857L16.4287 69.6911L50.0001 75.7143L83.5716 69.6911L50.0001 64.2857Z" fill="url(#paint0_linear)"/>
<path fill-rule="evenodd" clip-rule="evenodd" d="M50 30.7143C53.1559 30.7143 55.7143 28.156 55.7143 25.0001C55.7143 21.8441 53.1559 19.2858 50 19.2858C46.8441 19.2858 44.2857 21.8441 44.2857 25.0001C44.2857 28.156 46.8441 30.7143 50 30.7143ZM33.5714 40.0001C36.7274 40.0001 39.2857 37.4417 39.2857 34.2858C39.2857 31.1298 36.7274 28.5715 33.5714 28.5715C30.4155 28.5715 27.8571 31.1298 27.8571 34.2858C27.8571 37.4417 30.4155 40.0001 33.5714 40.0001ZM50 57.8572L25 61.9112L50 66.4286L75 61.9112L50 57.8572ZM72.8571 41.4286C72.8571 44.5846 70.2988 47.1429 67.1429 47.1429C63.9869 47.1429 61.4286 44.5846 61.4286 41.4286C61.4286 38.2727 63.9869 35.7143 67.1429 35.7143C70.2988 35.7143 72.8571 38.2727 72.8571 41.4286Z" fill="#F4A203"/>
<defs>
<linearGradient id="paint0_linear" x1="50.0001" y1="53.2143" x2="50.0001" y2="82.8572" gradientUnits="userSpaceOnUse">
<stop stop-color="#00157B"/>
<stop offset="1" stop-color="#3F64A9"/>
</linearGradient>
</defs>
</svg>
