<svg width="24" height="21" xmlns="http://www.w3.org/2000/svg"><path d="M23.9614521,5.40793414 L0.00935627807,5.40793414 L0.00935627807,3.31212575 C0.00935627807,1.49326347 1.48390717,0.0187125842 3.30276947,0.0187125842 L20.6680389,0.0187125842 C22.4869012,0.0187125842 23.9614521,1.49326347 23.9614521,3.31212575 L23.9614521,5.40793414 Z M23.9614521,7.20434133 L23.9614521,17.6833832 C23.9614521,19.5022455 22.4869012,20.9767964 20.6680389,20.9767964 L3.30276947,20.9767964 C1.48390719,20.9767964 0.00935627807,19.5022455 0.00935627807,17.6833832 L0.00935627807,7.20434133 L23.9614521,7.20434133 Z M18.8716317,14.9887725 L15.8776198,14.9887725 C15.3815556,14.9887725 14.9794162,15.3909119 14.9794162,15.886976 C14.9794162,16.3830402 15.3815556,16.7851796 15.8776198,16.7851796 L18.8716317,16.7851796 C19.3676959,16.7851796 19.7698353,16.3830402 19.7698353,15.886976 C19.7698353,15.3909119 19.3676959,14.9887725 18.8716317,14.9887725 L18.8716317,14.9887725 Z" fill="#FFB11A" fill-rule="nonzero"/></svg>